Coordinates
version=1
nRows=12
nColumns=24
inDegrees=yes

Units are S.I. units (second, meters, Newtons, ...)
Angles are in degrees.

endheader
time	pelvis_tilt	pelvis_list	pelvis_rotation	pelvis_tx	pelvis_ty	pelvis_tz	hip_flexion_r	hip_adduction_r	hip_rotation_r	knee_angle_r	ankle_angle_r	subtalar_angle_r	mtp_angle_r	hip_flexion_l	hip_adduction_l	hip_rotation_l	knee_angle_l	ankle_angle_l	subtalar_angle_l	mtp_angle_l	lumbar_extension	lumbar_bending	lumbar_rotation
      0.98500000	     -5.26393909	     -3.75240599	    -10.74157108	     -0.73489586	      1.26802570	     -0.94391225	    -11.57215012	      8.87273629	     19.26065646	     -5.50897640	      7.99398505	      3.12281844	      7.39391087	     28.70613248	     -1.67234984	     -1.61500621	     -7.52023697	     -3.63987466	    -17.11818392	      8.47963473	     -4.67590750	      8.11777786	      9.04933026
      0.99000000	     -5.40740116	     -3.55493637	    -10.61190647	     -0.72739677	      1.26753044	     -0.94385691	    -11.73695286	      8.66423369	     18.66706313	     -5.78326067	      7.97870683	      3.61843242	      7.63890047	     28.63971052	     -1.28779192	     -1.38011283	     -7.77728791	     -3.87013161	    -16.87562660	      8.46261667	     -4.14649829	      7.86399047	      8.81884778
      0.99500000	     -5.54590610	     -3.34677499	    -10.45296676	     -0.71987189	      1.26710917	     -0.94383473	    -11.86878036	      8.44913624	     17.99536857	     -6.11247081	      7.95716300	      4.22371896	      8.03714761	     28.54457016	     -0.87578502	     -1.11591628	     -8.01148403	     -4.17136837	    -16.68824783	      8.35933139	     -3.61177833	      7.58715274	      8.58502345
      1.00000000	     -5.69317319	     -3.14797839	    -10.25964084	     -0.71238377	      1.26674962	     -0.94384479	    -11.96164750	      8.25638155	     17.31906027	     -6.48149138	      7.86493225	      4.77257754	      8.52436715	     28.45626374	     -0.45896681	     -0.79364808	     -8.25174981	     -4.52353055	    -16.58390005	      8.20057315	     -3.07525075	      7.30720077	      8.33547177
      1.00500000	     -5.83272628	     -2.95023982	    -10.04533952	     -0.70495052	      1.26648470	     -0.94388821	    -12.01753771	      8.07056139	     16.62697349	     -6.91408625	      7.72787851	      5.32862926	      9.15299446	     28.33976638	     -0.03412973	     -0.42874906	     -8.46074776	     -4.96406694	    -16.57925108	      7.97310117	     -2.56169524	      7.02099776	      8.08928595
      1.01000000	     -5.98437788	     -2.77691107	     -9.77029077	     -0.69757047	      1.26628378	     -0.94397865	    -12.04307460	      7.92752700	     15.92404206	     -7.36168943	      7.47144890	      5.77198363	      9.75396501	     28.26562484	      0.38603477	     -0.00126950	     -8.72985531	     -5.38822532	    -16.57251628	      7.78830197	     -2.04704266	      6.74047960	      7.77857696
      1.01500000	     -6.13431012	     -2.61567544	     -9.45276824	     -0.69026316	      1.26617331	     -0.94410498	    -12.03245222	      7.80723353	     15.18906362	     -7.85726295	      7.16324883	      6.22156573	     10.42709031	     28.20224199	      0.80730273	      0.46677376	     -9.02307717	     -5.87527685	    -16.64175466	      7.59025390	     -1.55210761	      6.45183273	      7.44332978
      1.02000000	     -6.28661782	     -2.47365610	     -9.09193258	     -0.68302672	      1.26614501	     -0.94429088	    -11.97238670	      7.71881839	     14.42412885	     -8.41723729	      6.76070975	      6.63869408	     11.06719795	     28.14823370	      1.22343136	      0.99477608	     -9.33627180	     -6.30769208	    -16.71644774	      7.42306516	     -1.06925498	      6.17622370	      7.08277328
      1.02500000	     -6.42661065	     -2.35225320	     -8.68207506	     -0.67586321	      1.26621351	     -0.94451956	    -11.87879747	      7.65969841	     13.58755956	     -9.03725554	      6.28371061	      7.08085499	     11.75267856	     28.09266452	      1.63582025	      1.55890804	     -9.67720481	     -6.73902185	    -16.83763097	      7.24526531	     -0.61836820	      5.90180460	      6.66558058
      1.03000000	     -6.56939300	     -2.25631410	     -8.23339334	     -0.66877919	      1.26637564	     -0.94478584	    -11.72798447	      7.63629077	     12.71356881	     -9.72944242	      5.71279648	      7.51346461	     12.43454171	     28.04611946	      2.03140586	      2.16468247	    -10.03999425	     -7.11042876	    -16.94746286	      7.07493666	     -0.18504283	      5.63856630	      6.21700014
      1.03500000	     -6.70708118	     -2.18634240	     -7.74163568	     -0.66177816	      1.26662842	     -0.94509430	    -11.52660616	      7.64361381	     11.77083679	    -10.49382369	      5.06500357	      7.97494636	     13.11184283	     28.00569965	      2.41294541	      2.80477453	    -10.43507751	     -7.42800489	    -17.04024667	      6.90679263	      0.22084377	      5.38274904	      5.74111785
      1.04000000	     -6.82939520	     -2.14398462	     -7.20616807	     -0.65485854	      1.26697477	     -0.94544655	    -11.28322083	      7.67800519	     10.75123059	    -11.32853157	      4.32390547	      8.47358639	     13.79656747	     27.95415910	      2.78101433	      3.47707434	    -10.85142199	     -7.68088639	    -17.10221596	      6.72693056	      0.59209774	      5.13844000	      5.22099248
